<?xml version="1.0" standalone="no"?>
<!DOCTYPE svg PUBLIC "-//W3C//DTD SVG 20010904//EN"
 "http://www.w3.org/TR/2001/REC-SVG-20010904/DTD/svg10.dtd">
<svg version="1.0" xmlns="http://www.w3.org/2000/svg"
 width="2551.000000pt" height="2551.000000pt" viewBox="0 0 2551.000000 2551.000000"
 preserveAspectRatio="xMidYMid meet">
<metadata>
Created by potrace 1.11, written by Peter Selinger 2001-2013
</metadata>
<g transform="translate(0.000000,2551.000000) scale(0.100000,-0.100000)"
fill="#000000" stroke="none">
<path d="M12338 25505 c-2 -2 -77 -6 -168 -10 -218 -9 -373 -19 -485 -29 -16
-2 -66 -6 -110 -10 -44 -4 -98 -9 -120 -12 -22 -2 -60 -6 -85 -8 -25 -3 -85
-10 -135 -16 -49 -6 -110 -13 -135 -16 -38 -5 -259 -36 -340 -49 -50 -8 -326
-55 -350 -60 -14 -2 -49 -10 -78 -16 -29 -6 -66 -12 -82 -14 -128 -17 -818
-187 -1110 -275 -58 -17 -112 -33 -120 -35 -8 -2 -35 -10 -60 -18 -25 -8 -110
-36 -190 -61 -80 -26 -153 -51 -162 -56 -10 -6 -22 -10 -28 -10 -13 0 -238
-83 -455 -167 -856 -333 -1690 -767 -2445 -1274 -113 -76 -227 -154 -255 -174
-27 -19 -61 -43 -75 -53 -112 -75 -707 -534 -730 -561 -3 -4 -43 -38 -90 -76
-47 -38 -89 -75 -95 -81 -5 -6 -43 -39 -84 -75 -41 -35 -82 -71 -91 -79 -9 -8
-43 -39 -76 -69 -253 -228 -630 -604 -859 -857 -44 -48 -89 -98 -100 -110 -11
-12 -42 -48 -70 -80 -27 -32 -64 -74 -81 -94 -17 -19 -40 -46 -51 -60 -12 -14
-47 -56 -79 -95 -32 -38 -79 -95 -104 -125 -79 -95 -299 -379 -340 -440 -8
-12 -20 -28 -26 -34 -50 -54 -376 -534 -523 -771 -52 -82 -102 -162 -112 -177
-11 -15 -19 -32 -19 -38 0 -5 -4 -10 -10 -10 -5 0 -10 -4 -10 -9 0 -4 -35 -68
-78 -142 -203 -347 -455 -837 -604 -1174 -22 -49 -48 -108 -58 -130 -145 -321
-395 -999 -510 -1385 -103 -344 -233 -843 -256 -985 -3 -16 -9 -46 -14 -65
-12 -45 -78 -383 -85 -435 -4 -22 -8 -47 -10 -55 -3 -8 -7 -33 -10 -55 -3 -22
-7 -51 -10 -65 -3 -14 -7 -40 -10 -59 -2 -18 -7 -52 -11 -75 -9 -62 -11 -74
-23 -171 -7 -49 -13 -97 -16 -105 -2 -8 -6 -46 -10 -83 -3 -37 -8 -77 -10 -87
-2 -10 -6 -50 -10 -87 -3 -37 -8 -81 -10 -98 -2 -16 -7 -64 -10 -105 -3 -41
-8 -95 -10 -120 -2 -25 -7 -85 -10 -135 -4 -49 -8 -110 -10 -135 -26 -332 -26
-1192 0 -1585 11 -173 16 -235 20 -280 3 -27 7 -70 9 -95 13 -139 18 -195 21
-209 1 -9 6 -50 10 -91 4 -41 9 -82 10 -91 2 -9 6 -40 10 -70 5 -45 19 -147
50 -359 5 -34 16 -98 21 -124 2 -11 9 -50 15 -86 5 -36 28 -157 50 -270 23
-113 43 -215 45 -227 7 -34 51 -222 90 -383 186 -753 449 -1505 786 -2243 76
-166 325 -658 419 -827 50 -91 146 -256 212 -368 67 -112 127 -211 132 -220
17 -31 136 -215 175 -272 20 -30 75 -111 122 -180 46 -69 112 -163 146 -210
92 -126 199 -272 216 -295 9 -11 39 -49 66 -85 61 -78 221 -279 235 -295 6 -6
30 -35 55 -65 25 -30 54 -66 65 -79 27 -33 147 -173 160 -187 5 -6 39 -44 75
-84 36 -40 76 -84 89 -99 162 -180 505 -528 696 -705 66 -61 127 -118 135
-126 13 -14 248 -221 310 -274 80 -68 325 -270 385 -316 39 -30 72 -57 75 -60
3 -3 26 -21 53 -40 26 -19 57 -43 70 -54 93 -78 536 -388 770 -540 225 -146
743 -456 762 -456 3 0 22 -10 43 -23 79 -50 571 -301 717 -367 28 -13 92 -42
143 -66 52 -24 96 -44 98 -44 2 0 27 -11 56 -24 159 -72 479 -201 698 -281 41
-15 102 -38 135 -50 33 -13 119 -42 190 -65 72 -23 139 -46 150 -51 19 -8 468
-144 510 -154 11 -3 97 -25 190 -50 146 -38 436 -109 500 -121 11 -2 31 -6 45
-9 108 -23 323 -66 358 -71 20 -3 53 -9 72 -14 19 -4 58 -12 85 -16 62 -9 52
-7 220 -33 77 -12 151 -24 165 -26 26 -4 164 -22 235 -31 22 -2 56 -6 75 -9
65 -8 115 -14 185 -20 39 -4 88 -8 110 -10 119 -11 158 -14 240 -20 338 -25
483 -29 925 -30 376 0 631 6 825 20 28 2 96 6 153 10 57 3 112 8 121 10 10 2
58 6 107 10 49 3 103 8 119 10 32 4 51 7 255 30 143 17 257 32 370 50 14 3 43
7 65 10 22 3 51 8 65 10 14 3 41 7 60 10 59 9 252 45 300 55 25 5 59 12 75 15
37 6 207 41 305 64 25 5 56 12 70 15 14 3 45 10 70 17 25 6 52 12 60 14 42 9
309 77 335 86 17 5 93 27 170 48 180 51 520 155 575 178 8 4 17 7 20 8 242 73
890 330 1178 466 57 27 105 49 107 49 8 0 413 201 535 265 564 297 1096 629
1615 1009 127 93 114 83 185 139 30 23 72 55 93 70 72 54 448 362 497 407 9 8
47 42 85 75 39 33 93 80 120 106 28 25 84 77 125 114 240 220 574 556 795 800
44 49 87 96 95 105 22 24 133 151 157 180 12 14 52 61 89 105 123 146 306 377
441 560 74 99 140 187 146 195 40 48 270 391 381 565 142 222 149 235 212 340
32 55 64 109 71 120 7 11 15 27 19 35 4 8 28 49 52 90 24 41 62 109 85 150 22
41 53 100 70 130 89 165 297 586 367 745 13 28 38 83 56 123 19 41 34 79 34
86 0 6 4 16 8 21 5 6 19 35 31 65 13 30 29 69 36 85 8 17 34 82 59 145 25 63
50 129 57 145 7 17 13 35 15 40 1 6 12 35 24 65 86 220 282 810 325 980 2 8
29 110 60 225 48 181 83 327 150 625 31 141 105 544 130 715 3 22 10 67 15
100 5 33 14 98 20 145 6 47 12 99 14 115 5 32 23 200 31 278 3 26 7 68 10 95
3 26 7 72 9 102 7 97 18 244 21 280 19 193 27 1153 12 1430 -9 168 -16 284
-22 349 -3 29 -8 85 -11 125 -9 120 -21 244 -34 356 -5 41 -12 100 -15 130 -3
30 -8 66 -10 80 -2 14 -9 61 -15 106 -6 44 -13 91 -15 104 -2 13 -7 44 -10 69
-3 25 -7 57 -10 71 -3 14 -7 36 -10 50 -2 14 -7 45 -10 70 -5 36 -61 335 -79
425 -2 11 -11 56 -20 100 -9 44 -23 107 -31 140 -8 33 -16 71 -19 85 -2 14
-25 108 -51 210 -26 102 -48 192 -50 200 -19 86 -160 556 -225 750 -90 269
-285 785 -365 965 -181 407 -342 745 -464 970 -33 61 -69 128 -80 150 -11 22
-29 54 -38 70 -10 17 -36 62 -57 100 -52 93 -190 326 -234 395 -19 30 -45 71
-57 90 -61 100 -267 412 -276 420 -3 3 -12 16 -19 29 -7 14 -17 30 -22 35 -5
6 -63 88 -130 181 -67 94 -124 172 -127 175 -3 3 -40 50 -81 105 -75 100 -292
375 -335 424 -13 14 -69 80 -125 146 -325 381 -778 849 -1110 1145 -40 36 -82
74 -94 85 -45 44 -378 326 -501 425 -125 101 -552 422 -672 506 -197 137 -684
454 -698 454 -2 0 -30 17 -62 38 -32 21 -65 41 -73 45 -8 4 -33 18 -55 32 -22
13 -49 29 -60 35 -11 5 -42 23 -70 40 -27 16 -57 33 -65 37 -8 4 -44 23 -80
44 -36 20 -101 56 -145 79 -93 51 -611 310 -618 310 -3 0 -49 20 -102 45 -90
42 -155 71 -173 76 -4 2 -43 19 -87 39 -44 20 -174 74 -290 119 -229 90 -244
96 -277 111 -140 59 -939 316 -1106 355 -9 2 -115 29 -235 59 -119 31 -227 58
-240 60 -12 2 -85 18 -162 35 -77 17 -151 34 -165 36 -14 3 -36 7 -50 10 -14
3 -63 12 -110 20 -47 9 -105 20 -130 25 -25 6 -58 12 -75 14 -42 6 -101 15
-160 26 -27 5 -70 12 -95 15 -25 3 -56 8 -70 10 -14 3 -41 7 -60 9 -19 3 -89
11 -155 20 -66 8 -145 18 -175 21 -30 4 -66 8 -80 10 -14 2 -59 7 -100 10 -41
3 -88 8 -105 10 -16 2 -66 7 -110 10 -44 4 -98 8 -120 10 -22 2 -92 7 -155 10
-63 4 -144 9 -180 11 -79 5 -1027 13 -1032 9z"/>
</g>
</svg>
